<svg width="32" height="32" viewBox="0 0 512 512" xmlns="http://www.w3.org/2000/svg">
  <defs>
    <radialGradient id="s" cx="38%" cy="30%" r="80%">
      <stop offset="0%" stop-color="#4c4643"/>
      <stop offset="52%" stop-color="#272320"/>
      <stop offset="100%" stop-color="#0d0b0a"/>
    </radialGradient>
    <clipPath id="g"><circle cx="256" cy="256" r="150"/></clipPath>
  </defs>
  <g transform="rotate(-18 256 256)">
    <ellipse cx="256" cy="256" rx="210" ry="124" fill="none" stroke="#7f171b" stroke-width="16"/>
  </g>
  <circle cx="256" cy="256" r="150" fill="url(#s)"/>
  <g clip-path="url(#g)" fill="none" stroke="#ffffff" stroke-width="5" opacity="0.94">
    <line x1="256" y1="106" x2="256" y2="406"/>
    <ellipse cx="256" cy="256" rx="66" ry="150"/>
    <ellipse cx="256" cy="256" rx="118" ry="150"/>
    <line x1="106" y1="256" x2="406" y2="256"/>
    <path d="M118 200 Q256 214 394 200"/>
    <path d="M118 312 Q256 298 394 312"/>
  </g>
  <g transform="rotate(-18 256 256)">
    <path d="M46 256 A210 124 0 0 1 466 256" fill="none" stroke="#a51f24" stroke-width="16"/>
  </g>
  <g stroke="#a51f24" stroke-width="30" stroke-linecap="round">
    <line x1="256" y1="88" x2="256" y2="424"/>
    <line x1="150" y1="236" x2="352" y2="236"/>
  </g>
  <path d="M350 208 L396 236 L350 264 Z" fill="#a51f24"/>
</svg>
